<svg width="45" height="45" viewBox="0 0 45 45" fill="none" xmlns="http://www.w3.org/2000/svg">
<path d="M17.4963 3.87354C17.0053 3.87366 16.5191 3.97049 16.0656 4.15849C15.612 4.34649 15.1999 4.62199 14.8528 4.96926C14.1518 5.67059 13.7582 6.62166 13.7584 7.61325C13.7585 8.10423 13.8554 8.59038 14.0434 9.04395C14.2314 9.49751 14.5069 9.9096 14.8541 10.2567C15.5555 10.9577 16.5065 11.3513 17.4981 11.3511H21.2294V7.61231C21.2294 6.6217 20.8363 5.67158 20.1364 4.97058C19.4364 4.26958 18.4869 3.87502 17.4963 3.87354ZM17.4963 13.843H7.54737C6.55579 13.843 5.60481 14.2369 4.90366 14.9381C4.2025 15.6392 3.80859 16.5902 3.80859 17.5818C3.80859 18.5734 4.2025 19.5243 4.90366 20.2255C5.60481 20.9266 6.55579 21.3205 7.54737 21.3205H17.4963C18.4879 21.3205 19.4388 20.9266 20.14 20.2255C20.8411 19.5243 21.235 18.5734 21.235 17.5818C21.235 16.5902 20.8411 15.6392 20.14 14.9381C19.4388 14.2369 18.4879 13.843 17.4963 13.843Z" fill="white"/>
<path opacity="0.25" d="M41.1243 17.5816C41.1243 16.5918 40.7311 15.6425 40.0312 14.9425C39.3312 14.2426 38.3819 13.8494 37.3921 13.8494C36.4022 13.8494 35.4529 14.2426 34.753 14.9425C34.053 15.6425 33.6598 16.5918 33.6598 17.5816V21.3204H37.393C37.8835 21.3199 38.3691 21.2228 38.8221 21.0347C39.275 20.8465 39.6865 20.571 40.033 20.2238C40.3795 19.8766 40.6542 19.4646 40.8414 19.0112C41.0287 18.5579 41.1248 18.0721 41.1243 17.5816ZM31.1735 17.5816V7.61216C31.1735 6.62256 30.7804 5.67349 30.0807 4.97373C29.3809 4.27398 28.4318 3.88086 27.4422 3.88086C26.4526 3.88086 25.5036 4.27398 24.8038 4.97373C24.1041 5.67349 23.7109 6.62256 23.7109 7.61216V17.5816C23.7109 18.5712 24.1041 19.5203 24.8038 20.22C25.5036 20.9198 26.4526 21.3129 27.4422 21.3129C28.4318 21.3129 29.3809 20.9198 30.0807 20.22C30.7804 19.5203 31.1735 18.5712 31.1735 17.5816Z" fill="white"/>
<path opacity="0.7" d="M27.4449 41.2614C28.4365 41.2614 29.3874 40.8675 30.0886 40.1663C30.7898 39.4652 31.1837 38.5142 31.1837 37.5226C31.1837 36.531 30.7898 35.58 30.0886 34.8789C29.3874 34.1777 28.4365 33.7838 27.4449 33.7838H23.7136V37.5226C23.7136 38.5129 24.1065 39.4627 24.806 40.1637C25.5055 40.8646 26.4546 41.2594 27.4449 41.2614ZM27.4449 31.2901H37.3956C38.3872 31.2901 39.3382 30.8962 40.0394 30.195C40.7405 29.4938 41.1344 28.5429 41.1344 27.5513C41.1344 26.5597 40.7405 25.6087 40.0394 24.9076C39.3382 24.2064 38.3872 23.8125 37.3956 23.8125H27.4467C26.4552 23.8123 25.5041 24.2059 24.8028 24.9069C24.4555 25.254 24.18 25.6661 23.992 26.1196C23.804 26.5732 23.7072 27.0594 23.707 27.5503C23.7069 28.0413 23.8035 28.5275 23.9913 28.9812C24.179 29.4348 24.4543 29.8471 24.8014 30.1943C25.5024 30.8957 26.4533 31.2898 27.4449 31.2901Z" fill="white"/>
<path opacity="0.5" d="M3.81641 27.5513C3.81641 28.0414 3.91295 28.5267 4.10051 28.9795C4.28807 29.4324 4.56298 29.8438 4.90955 30.1904C5.25613 30.5369 5.66756 30.8119 6.12038 30.9994C6.5732 31.187 7.05852 31.2835 7.54864 31.2835C8.03877 31.2835 8.52409 31.187 8.97691 30.9994C9.42973 30.8119 9.84116 30.5369 10.1877 30.1904C10.5343 29.8438 10.8092 29.4324 10.9968 28.9795C11.1843 28.5267 11.2809 28.0414 11.2809 27.5513V23.8125H7.54771C7.05722 23.813 6.57162 23.9101 6.11866 24.0982C5.66569 24.2864 5.25422 24.5619 4.90773 24.9091C4.56125 25.2563 4.28654 25.6683 4.09929 26.1217C3.91204 26.575 3.81592 27.0608 3.81641 27.5513ZM13.7672 27.5513V37.5226C13.7672 38.0126 13.8637 38.4978 14.0512 38.9505C14.2387 39.4032 14.5136 39.8145 14.86 40.161C15.2065 40.5075 15.6179 40.7824 16.0706 40.9699C16.5233 41.1574 17.0085 41.2539 17.4985 41.2539C17.9885 41.2539 18.4737 41.1574 18.9264 40.9699C19.3791 40.7824 19.7904 40.5075 20.1369 40.161C20.4834 39.8145 20.7582 39.4032 20.9457 38.9505C21.1333 38.4978 21.2298 38.0126 21.2298 37.5226V27.555C21.2303 26.5654 20.8376 25.6161 20.1382 24.916C19.4388 24.2159 18.4899 23.8223 17.5003 23.8218C16.5107 23.8213 15.5615 24.214 14.8614 24.9134C14.1613 25.6128 13.7677 26.5617 13.7672 27.5513Z" fill="white"/>
</svg>
